<mxfile host="app.diagrams.net" modified="2022-05-14T19:36:01.293Z" agent="5.0 (Windows NT 10.0; Win64; x64) AppleWebKit/537.36 (KHTML, like Gecko) Chrome/101.0.4951.64 Safari/537.36" etag="GgtqMBDcrlpUt-BlGuW5" version="18.0.4" type="github">
  <diagram id="9DGtvT3dfepCbPWBsyDG" name="Page-1">
    <mxGraphModel dx="1038" dy="579" grid="1" gridSize="10" guides="1" tooltips="1" connect="1" arrows="1" fold="1" page="1" pageScale="1" pageWidth="827" pageHeight="1169" math="0" shadow="0">
      <root>
        <mxCell id="0" />
        <mxCell id="1" parent="0" />
        <mxCell id="RahxCOka9a5ybHkZvGM2-3" value="" style="edgeStyle=orthogonalEdgeStyle;rounded=0;orthogonalLoop=1;jettySize=auto;html=1;" parent="1" source="RahxCOka9a5ybHkZvGM2-1" target="RahxCOka9a5ybHkZvGM2-2" edge="1">
          <mxGeometry relative="1" as="geometry" />
        </mxCell>
        <mxCell id="RahxCOka9a5ybHkZvGM2-7" value="" style="edgeStyle=orthogonalEdgeStyle;rounded=0;orthogonalLoop=1;jettySize=auto;html=1;" parent="1" source="RahxCOka9a5ybHkZvGM2-1" target="RahxCOka9a5ybHkZvGM2-6" edge="1">
          <mxGeometry relative="1" as="geometry" />
        </mxCell>
        <mxCell id="RahxCOka9a5ybHkZvGM2-11" value="" style="edgeStyle=orthogonalEdgeStyle;rounded=0;orthogonalLoop=1;jettySize=auto;html=1;" parent="1" source="RahxCOka9a5ybHkZvGM2-1" target="RahxCOka9a5ybHkZvGM2-10" edge="1">
          <mxGeometry relative="1" as="geometry" />
        </mxCell>
        <mxCell id="RahxCOka9a5ybHkZvGM2-1" value="Book" style="rounded=0;whiteSpace=wrap;html=1;" parent="1" vertex="1">
          <mxGeometry x="80" y="160" width="120" height="60" as="geometry" />
        </mxCell>
        <mxCell id="RahxCOka9a5ybHkZvGM2-5" value="" style="edgeStyle=orthogonalEdgeStyle;rounded=0;orthogonalLoop=1;jettySize=auto;html=1;" parent="1" source="RahxCOka9a5ybHkZvGM2-2" target="RahxCOka9a5ybHkZvGM2-4" edge="1">
          <mxGeometry relative="1" as="geometry" />
        </mxCell>
        <mxCell id="RahxCOka9a5ybHkZvGM2-2" value="Review" style="rounded=0;whiteSpace=wrap;html=1;" parent="1" vertex="1">
          <mxGeometry x="80" y="20" width="120" height="60" as="geometry" />
        </mxCell>
        <mxCell id="RahxCOka9a5ybHkZvGM2-4" value="Reviewer" style="rounded=0;whiteSpace=wrap;html=1;" parent="1" vertex="1">
          <mxGeometry x="280" y="20" width="120" height="60" as="geometry" />
        </mxCell>
        <mxCell id="RahxCOka9a5ybHkZvGM2-9" value="" style="edgeStyle=orthogonalEdgeStyle;rounded=0;orthogonalLoop=1;jettySize=auto;html=1;" parent="1" source="RahxCOka9a5ybHkZvGM2-6" target="RahxCOka9a5ybHkZvGM2-8" edge="1">
          <mxGeometry relative="1" as="geometry" />
        </mxCell>
        <mxCell id="RahxCOka9a5ybHkZvGM2-6" value="Author" style="rounded=0;whiteSpace=wrap;html=1;" parent="1" vertex="1">
          <mxGeometry x="280" y="160" width="120" height="60" as="geometry" />
        </mxCell>
        <mxCell id="RahxCOka9a5ybHkZvGM2-8" value="Country" style="rounded=0;whiteSpace=wrap;html=1;" parent="1" vertex="1">
          <mxGeometry x="480" y="160" width="120" height="60" as="geometry" />
        </mxCell>
        <mxCell id="RahxCOka9a5ybHkZvGM2-10" value="Genre" style="rounded=0;whiteSpace=wrap;html=1;" parent="1" vertex="1">
          <mxGeometry x="80" y="300" width="120" height="60" as="geometry" />
        </mxCell>
        <mxCell id="RahxCOka9a5ybHkZvGM2-38" value="Book" style="swimlane;childLayout=stackLayout;horizontal=1;startSize=30;horizontalStack=0;rounded=1;fontSize=14;fontStyle=0;strokeWidth=2;resizeParent=0;resizeLast=1;shadow=0;dashed=0;align=center;" parent="1" vertex="1">
          <mxGeometry x="45" y="480" width="190" height="165" as="geometry">
            <mxRectangle x="70" y="465" width="60" height="30" as="alternateBounds" />
          </mxGeometry>
        </mxCell>
        <mxCell id="RahxCOka9a5ybHkZvGM2-39" value="+ Id&#xa;+ Title&#xa;+ Publication Date&#xa;&#xa;&lt;Reviews&gt;&#xa;&lt;BookAuthors&gt;&#xa;&lt;BookGenres&gt;&#xa;" style="align=left;strokeColor=none;fillColor=none;spacingLeft=4;fontSize=12;verticalAlign=top;resizable=0;rotatable=0;part=1;" parent="RahxCOka9a5ybHkZvGM2-38" vertex="1">
          <mxGeometry y="30" width="190" height="135" as="geometry" />
        </mxCell>
        <mxCell id="RahxCOka9a5ybHkZvGM2-40" value="Authors" style="swimlane;childLayout=stackLayout;horizontal=1;startSize=30;horizontalStack=0;rounded=1;fontSize=14;fontStyle=0;strokeWidth=2;resizeParent=0;resizeLast=1;shadow=0;dashed=0;align=center;" parent="1" vertex="1">
          <mxGeometry x="330" y="380" width="190" height="180" as="geometry" />
        </mxCell>
        <mxCell id="RahxCOka9a5ybHkZvGM2-41" value="+ Id&#xa;+ Name&#xa;+ Country&#xa;&#xa;&lt;BookAuthors&gt;" style="align=left;strokeColor=none;fillColor=none;spacingLeft=4;fontSize=12;verticalAlign=top;resizable=0;rotatable=0;part=1;" parent="RahxCOka9a5ybHkZvGM2-40" vertex="1">
          <mxGeometry y="30" width="190" height="150" as="geometry" />
        </mxCell>
        <mxCell id="RahxCOka9a5ybHkZvGM2-42" value="BookAuthors(JOIN)" style="swimlane;childLayout=stackLayout;horizontal=1;startSize=30;horizontalStack=0;rounded=1;fontSize=14;fontStyle=0;strokeWidth=2;resizeParent=0;resizeLast=1;shadow=0;dashed=0;align=center;" parent="1" vertex="1">
          <mxGeometry x="630" y="330" width="160" height="120" as="geometry" />
        </mxCell>
        <mxCell id="RahxCOka9a5ybHkZvGM2-43" value="+ BookId&#xa;+ AuthorID&#xa;&#xa;Book&#xa;Author" style="align=left;strokeColor=none;fillColor=none;spacingLeft=4;fontSize=12;verticalAlign=top;resizable=0;rotatable=0;part=1;" parent="RahxCOka9a5ybHkZvGM2-42" vertex="1">
          <mxGeometry y="30" width="160" height="90" as="geometry" />
        </mxCell>
        <mxCell id="RahxCOka9a5ybHkZvGM2-44" value="BookGenres(JOIN)" style="swimlane;childLayout=stackLayout;horizontal=1;startSize=30;horizontalStack=0;rounded=1;fontSize=14;fontStyle=0;strokeWidth=2;resizeParent=0;resizeLast=1;shadow=0;dashed=0;align=center;" parent="1" vertex="1">
          <mxGeometry x="630" y="502.5" width="160" height="120" as="geometry" />
        </mxCell>
        <mxCell id="RahxCOka9a5ybHkZvGM2-45" value="+ BookId&#xa;+ GenreId&#xa;&#xa;Book&#xa;Genre" style="align=left;strokeColor=none;fillColor=none;spacingLeft=4;fontSize=12;verticalAlign=top;resizable=0;rotatable=0;part=1;" parent="RahxCOka9a5ybHkZvGM2-44" vertex="1">
          <mxGeometry y="30" width="160" height="90" as="geometry" />
        </mxCell>
        <mxCell id="RahxCOka9a5ybHkZvGM2-47" value="Genre" style="swimlane;childLayout=stackLayout;horizontal=1;startSize=30;horizontalStack=0;rounded=1;fontSize=14;fontStyle=0;strokeWidth=2;resizeParent=0;resizeLast=1;shadow=0;dashed=0;align=center;" parent="1" vertex="1">
          <mxGeometry x="60" y="670" width="160" height="120" as="geometry" />
        </mxCell>
        <mxCell id="RahxCOka9a5ybHkZvGM2-48" value="+ Id&#xa;+ Name&#xa;&#xa;&lt;BookGenres&gt;" style="align=left;strokeColor=none;fillColor=none;spacingLeft=4;fontSize=12;verticalAlign=top;resizable=0;rotatable=0;part=1;" parent="RahxCOka9a5ybHkZvGM2-47" vertex="1">
          <mxGeometry y="30" width="160" height="90" as="geometry" />
        </mxCell>
        <mxCell id="RahxCOka9a5ybHkZvGM2-49" value="Country" style="swimlane;childLayout=stackLayout;horizontal=1;startSize=30;horizontalStack=0;rounded=1;fontSize=14;fontStyle=0;strokeWidth=2;resizeParent=0;resizeLast=1;shadow=0;dashed=0;align=center;" parent="1" vertex="1">
          <mxGeometry x="460" y="590" width="160" height="120" as="geometry" />
        </mxCell>
        <mxCell id="RahxCOka9a5ybHkZvGM2-50" value="+ Id&#xa;+ Name&#xa;&#xa;&lt;Authors&gt;" style="align=left;strokeColor=none;fillColor=none;spacingLeft=4;fontSize=12;verticalAlign=top;resizable=0;rotatable=0;part=1;" parent="RahxCOka9a5ybHkZvGM2-49" vertex="1">
          <mxGeometry y="30" width="160" height="90" as="geometry" />
        </mxCell>
        <mxCell id="RahxCOka9a5ybHkZvGM2-52" value="Reviews" style="swimlane;childLayout=stackLayout;horizontal=1;startSize=30;horizontalStack=0;rounded=1;fontSize=14;fontStyle=0;strokeWidth=2;resizeParent=0;resizeLast=1;shadow=0;dashed=0;align=center;" parent="1" vertex="1">
          <mxGeometry x="260" y="720" width="180" height="180" as="geometry" />
        </mxCell>
        <mxCell id="RahxCOka9a5ybHkZvGM2-53" value="+ Id&#xa;+ Title&#xa;+ Text&#xa;+ Stars&#xa;&#xa;Reviewer&#xa;Book" style="align=left;strokeColor=none;fillColor=none;spacingLeft=4;fontSize=12;verticalAlign=top;resizable=0;rotatable=0;part=1;" parent="RahxCOka9a5ybHkZvGM2-52" vertex="1">
          <mxGeometry y="30" width="180" height="150" as="geometry" />
        </mxCell>
        <mxCell id="RahxCOka9a5ybHkZvGM2-55" value="Reviewer" style="swimlane;childLayout=stackLayout;horizontal=1;startSize=30;horizontalStack=0;rounded=1;fontSize=14;fontStyle=0;strokeWidth=2;resizeParent=0;resizeLast=1;shadow=0;dashed=0;align=center;" parent="1" vertex="1">
          <mxGeometry x="490" y="734.5" width="170" height="151" as="geometry" />
        </mxCell>
        <mxCell id="RahxCOka9a5ybHkZvGM2-56" value="+ Id&#xa;+ Username&#xa;+ FirstName&#xa;+ LastNameÂ &#xa;&#xa;&lt;Reviews&gt;" style="align=left;strokeColor=none;fillColor=none;spacingLeft=4;fontSize=12;verticalAlign=top;resizable=0;rotatable=0;part=1;" parent="RahxCOka9a5ybHkZvGM2-55" vertex="1">
          <mxGeometry y="30" width="170" height="121" as="geometry" />
        </mxCell>
      </root>
    </mxGraphModel>
  </diagram>
</mxfile>
